# xmcd CD database file
#
# Track frame offsets:
#	150
#	18375
#	34918
#	52595
#	70913
#	86506
#	102217
#	119176
#	134505
#	151644
#	165068
#	182784
#	198318
#	213555
#	227766
#	244375
#	260550
#	277422
#
# Disc length: 3944 seconds
#
# Revision: 0
# Processed by: cddbd v1.4PL0 Copyright (c) Steve Scherf et al.
# Submitted via: CDex 1.51
#
DISCID=000f6612
DTITLE=Various Artist - Top Hits USA RC80
DYEAR=2003
DGENRE=Country
TTITLE0=Toby Keith - Love This Bar (Single Version)
TTITLE1=Patty Loveless - Lovin' All Night
TTITLE2=Pat Green - Wave On Wave (Country Radio Edit)
TTITLE3=Montgomery Gentry - Hell Yeah
TTITLE4=Rushlow - I Can't Be Your Friend
TTITLE5=Chris Cagle - Chics Dig It (Edit)
TTITLE6=Rebecca Lynn Howard - What A Shame
TTITLE7=Blake Shelton - Heavy Liftin'
TTITLE8=Lonestar - Walking In Memphis
TTITLE9=Jamie O'Neal - Every Little Thing
TTITLE10=Rascal Flatts - Melt
TTITLE11=Reba McEntire - I'm Gonna Take That Mountain
TTITLE12=Darryl Worley - Tennessee River Run
TTITLE13=Rachel Proctor - Days Like This
TTITLE14=George Strait - Cowboys Like Us
TTITLE15=Deanna Carter - I'm Just A Girl
TTITLE16=Billy Currington - Walk A Little Straighter
TTITLE17=Steve Holy - Rock A Bye Heart
EXTD=YEAR: 2003
EXTT0=
EXTT1=
EXTT2=
EXTT3=
EXTT4=
EXTT5=
EXTT6=
EXTT7=
EXTT8=
EXTT9=
EXTT10=
EXTT11=
EXTT12=
EXTT13=
EXTT14=
EXTT15=
EXTT16=
EXTT17=
PLAYORDER=
